<svg xmlns="http://www.w3.org/2000/svg" width="104" height="24" viewBox="0 0 104 24">
    <g fill="none" fill-rule="evenodd">
        <g fill="#A02B2D">
            <g>
                <g>
                    <path d="M0 23.039V.512h6.343L11.8 12.001 17.22.512h6.652V23.04h-6.763V7.812l-6.54 15.227h-.656L3.515 8.432V23.04H0zm38.703-6.914c0-1.925-.223-3.372-.662-4.335-.44-.969-1.108-1.453-2.005-1.453-.829 0-1.454.457-1.862 1.377-.415.919-.619 2.312-.619 4.171 0 1.932.223 3.384.669 4.358.45.974 1.113 1.458 1.998 1.458.829 0 1.454-.463 1.862-1.387.415-.925.62-2.323.62-4.189zm-2.555 7.442c-2.358 0-4.32-.757-5.89-2.263-1.572-1.513-2.358-3.4-2.358-5.674 0-2.17.748-3.905 2.245-5.216 1.498-1.306 3.503-1.959 6.003-1.959 2.345 0 4.3.756 5.865 2.274 1.566 1.513 2.345 3.405 2.345 5.679 0 2.192-.742 3.933-2.221 5.222-1.479 1.29-3.477 1.937-5.99 1.937zm14.175-.528V11.322h-4.312v-2.42h13.866v2.42h-4.313V23.04h-5.24zm12.474 0V8.901h5.241V23.04h-5.24zm19.596-6.914c0-1.925-.223-3.372-.662-4.335-.44-.969-1.107-1.453-2.005-1.453-.829 0-1.454.457-1.862 1.377-.415.919-.619 2.312-.619 4.171 0 1.932.223 3.384.668 4.358.452.974 1.114 1.458 1.999 1.458.83 0 1.454-.463 1.862-1.387.415-.925.62-2.323.62-4.189zm-2.556 7.442c-2.357 0-4.318-.757-5.89-2.263-1.572-1.513-2.357-3.4-2.357-5.674 0-2.17.748-3.905 2.246-5.216 1.497-1.306 3.502-1.959 6.001-1.959 2.346 0 4.3.756 5.866 2.274 1.566 1.513 2.346 3.405 2.346 5.679 0 2.192-.743 3.933-2.222 5.222-1.479 1.29-3.478 1.937-5.99 1.937zm14.213-9.743v9.215h-2.592V11.197c0-.947.216-1.638.643-2.078.427-.44 1.083-.664 1.98-.664.73 0 1.386.185 1.968.55.575.364 1.17.985 1.77 1.855l3.588 5.135V8.901H104v12.305c0 .848-.143 1.458-.427 1.817-.285.364-.755.544-1.398.544-.483 0-.929-.142-1.33-.43-.397-.289-.892-.833-1.474-1.627l-5.32-7.686z" transform="translate(-69 -24) translate(69 24)"/>
                    <g>
                        <path d="M4.241 1.905c.243 0 .439.21.439.468 0 .26-.196.47-.439.47-.242 0-.438-.21-.438-.47 0-.258.196-.468.438-.468zm-.75 1.436h-.918s-.323-.185-.366-.224c-.042-.04-.032-.152-.02-.152h1.78s.432-.008.384.463h1.001l-.024.13c-.013.062-.01.09-.063.124-.078.048-.223.129-.346.129l-1.564.005.212-.569s-.023-.015-.041.021l-.036.073zm-.19.629l.005-.014h.897l-.08.318s.418 1.236.492 1.265c.056.021.317.109.444.16.086.033.07.035.073.13l.004.115h-.86l-.587-1.31c.03-.084.142-.196.082-.164-.153.035-.258.498-.278.498h-.975s-.068.355-.112.437c-.011.021-.02.018-.039.019-.057 0-.166.006-.166.006v-.946h.933l.167-.514zM4.26.348l3.59 3.837-.249.266L4.011.615 4.26.348zM.448 3.726L3.935 0l.249.267L.698 3.993l-.25-.267zm3.143 4.055L0 3.943l.25-.267 3.59 3.837-.249.268zm3.811-3.379L3.917 8.128l-.25-.267 3.486-3.726.25.267z" transform="translate(-69 -24) translate(69 24) translate(61.478)"/>
                    </g>
                </g>
            </g>
        </g>
    </g>
</svg>
